# xmcd
#
# Track frame offsets: 
#        150
#        10726
#        21763
#        33575
#        44042
#        55271
#        66188
#        79900
#        90585
#        101940
#        112958
#        123374
#        139327
#        152642
#        166567
#        179943
#        195978
#        207962
#        220621
#        233530
#
# Disc length: 3284 seconds
#
# Revision: 0
# Processed by: cddbd v1.5.2PL0 Copyright (c) Steve Scherf et al.
# Submitted via: ExactAudioCopy v1.0b3
#
DISCID=100cd214
DTITLE=Patsy Cline and Merle Haggard - Country Royalty
DYEAR=2004
DGENRE=Country
TTITLE0=Patsy Cline - Lovesick Blues
TTITLE1=Patsy Cline - Don't Ever Leave Me
TTITLE2=Patsy Cline - Let The Teardrops Fall
TTITLE3=Patsy Cline - I Love You Honey
TTITLE4=Patsy Cline - Hungry For Love
TTITLE5=Patsy Cline - I Cried All the Way To The Altar
TTITLE6=Patsy Cline - A Church, A Courtroom And Then Goodbye
TTITLE7=Patsy Cline - Stop Look And Listen
TTITLE8=Patsy Cline - The Heart You Break May Be Your Own
TTITLE9=Patsy Cline - I Can't Forget
TTITLE10=Patsy Cline - He Will Do For You What He Has Done For Me
TTITLE11=Merle Haggard - It's All In The Movies
TTITLE12=Merle Haggard - Holding Things Together
TTITLE13=Merle Haggard - I Threw Away The Rose
TTITLE14=Merle Haggard - Cherokee Maiden
TTITLE15=Merle Haggard - It's Not Love (But It's Not Bad)
TTITLE16=Merle Haggard - Things Aren't Funny Anymore
TTITLE17=Merle Haggard - The Emptiest Arms In The World
TTITLE18=Merle Haggard - Misery And Gin
TTITLE19=Merle Haggard - It's Been A Great Afternoon
EXTD=
EXTT0=
EXTT1=
EXTT2=
EXTT3=
EXTT4=
EXTT5=
EXTT6=
EXTT7=
EXTT8=
EXTT9=
EXTT10=
EXTT11=
EXTT12=
EXTT13=
EXTT14=
EXTT15=
EXTT16=
EXTT17=
EXTT18=
EXTT19=
PLAYORDER=
